<svg width="176" height="32" viewBox="0 0 176 32" fill="none" xmlns="http://www.w3.org/2000/svg">
<g clip-path="url(#clip0_2_108)">
<rect y="1" width="30" height="30" rx="4.6875" fill="#3C50E0"/>
<path d="M9.45604 2.09553C9.32878 2.12583 9.04396 2.23491 8.81974 2.34399C8.48038 2.50761 8.23192 2.71971 7.11688 3.82263C5.83216 5.09523 5.82004 5.1134 6.08062 5.0528C6.41998 4.98008 7.0987 5.06492 7.43806 5.2346L7.68652 5.3558L8.45008 4.61042C9.29848 3.7802 9.57724 3.59841 10.1166 3.56205C10.5711 3.52569 10.9165 3.6893 11.2013 4.0832C11.371 4.31954 11.3892 4.38014 11.3892 4.8104C11.3831 5.13764 11.3528 5.33156 11.274 5.48306C11.1165 5.78606 8.47432 8.4161 8.17738 8.56154C7.60774 8.84636 7.11082 8.81 6.62602 8.45246C6.22 8.1434 5.84428 8.11916 5.54734 8.36762C5.17162 8.68274 5.1898 9.19178 5.59582 9.56144C6.47452 10.3553 7.63804 10.4886 8.81368 9.9311C9.22576 9.73718 9.39544 9.59174 10.7408 8.25248C11.5831 7.42226 12.3224 6.6284 12.4618 6.42236C12.8254 5.8709 12.9587 5.3558 12.9224 4.64072C12.8981 4.15592 12.8618 3.99231 12.7042 3.65295C12.383 2.94393 11.7346 2.37429 10.9892 2.14401C10.5953 2.02281 9.87418 1.99857 9.45604 2.09553Z" fill="white"/>
<path d="M18.437 2.29551C17.9158 2.47731 17.528 2.76213 17.1704 3.20451C16.8008 3.65295 16.625 4.11351 16.5887 4.72557C16.5099 5.87697 16.7523 6.33753 18.2673 7.98585C18.9096 8.67669 19.4308 9.24027 19.4369 9.24027C19.4429 9.24027 19.4429 9.05241 19.4308 8.82819C19.4126 8.44035 19.5156 7.99191 19.7459 7.47681C19.7762 7.40409 19.5823 7.15563 19.0369 6.55569C18.237 5.68305 18.0855 5.41641 18.0855 4.91343C18.0915 4.41045 18.4794 3.88323 18.9702 3.72567C19.2611 3.62871 19.7217 3.68325 20.0429 3.85899C20.4307 4.07109 22.8911 6.74961 23.0547 7.13745C23.2425 7.57377 23.2062 8.10099 22.9638 8.45247C22.6002 8.96757 22.5699 9.03423 22.5699 9.22815C22.5699 9.64629 22.8668 9.96141 23.2789 9.97959C23.7395 9.99777 24.0909 9.67659 24.4727 8.87667C24.6545 8.50095 24.6606 8.45247 24.6606 7.71921V6.95565L24.4061 6.44055C24.1818 5.99817 23.994 5.75577 23.0729 4.74981C21.4185 2.94393 21.2003 2.74395 20.6852 2.49549C19.8792 2.11371 19.1399 2.04705 18.437 2.29551Z" fill="white"/>
<path d="M5.87458 5.84667C4.98376 6.02847 4.6747 6.25269 2.94154 7.99797C1.55986 9.38571 1.42048 9.54933 1.2205 9.97353C0.535715 11.4037 1.0387 13.0399 2.3719 13.7428C3.20818 14.1792 4.10506 14.1852 4.98982 13.7489C5.4019 13.5489 5.58976 13.3853 6.71086 12.2763L7.97134 11.028H7.37746C6.8866 11.0219 6.72904 10.9977 6.4624 10.8825L6.14122 10.7371L5.36554 11.5006C4.4929 12.3672 4.23232 12.5248 3.66268 12.5248C3.26878 12.5248 3.05062 12.4278 2.77792 12.1369C2.49916 11.8461 2.43856 11.6885 2.4325 11.3007C2.42644 10.7068 2.56582 10.5068 4.02022 9.04029C4.74136 8.31309 5.45038 7.64649 5.60188 7.55559C5.83822 7.41621 5.94124 7.39197 6.36544 7.39197C6.83812 7.39197 6.86236 7.39803 7.23808 7.64649C7.68046 7.94949 7.90468 7.97373 8.21374 7.76769C8.69854 7.44045 8.69854 6.90111 8.20768 6.47085C7.63198 5.96181 6.63208 5.69517 5.87458 5.84667Z" fill="white"/>
<path d="M20.97 6.94959C20.2489 7.70103 20.0186 8.83425 20.3822 9.87051C20.5822 10.4341 20.7882 10.7068 22.2002 12.246C24 14.1973 24.3333 14.4094 25.5696 14.4155C26.1695 14.4216 26.2786 14.4034 26.6422 14.2519C27.7815 13.7671 28.4965 12.5127 28.3269 11.3007C28.1875 10.3008 28.0542 10.1129 25.8665 7.77375C25.4362 7.30713 25.4302 7.30713 25.4847 7.53135C25.5514 7.83435 25.4484 8.46459 25.2605 8.87061L25.1151 9.19785L25.5817 9.70689C26.7149 10.9492 26.8058 11.0946 26.8119 11.6703C26.8119 12.1066 26.624 12.4763 26.2725 12.7248C26.0422 12.8884 25.9695 12.9066 25.5817 12.9005C25.2241 12.9005 25.0969 12.8702 24.8666 12.7369C24.5212 12.5369 22.1214 9.96141 21.9093 9.56751C21.7336 9.24027 21.679 8.79183 21.7821 8.48883C21.8184 8.36763 21.9517 8.13735 22.0669 7.98585C22.1881 7.82829 22.3032 7.63437 22.3275 7.54953C22.3941 7.30107 22.2911 6.97989 22.0851 6.79809C21.9336 6.66477 21.8427 6.63447 21.5881 6.63447C21.2912 6.63447 21.2609 6.64659 20.97 6.94959Z" fill="white"/>
<path d="M10.1711 9.65841C9.75296 9.91293 9.78326 9.47055 9.78326 15.6093C9.78326 21.1482 9.78326 21.1603 9.91052 21.3239C10.1893 21.6754 9.97112 21.6633 15.007 21.6633C19.4853 21.6633 19.6368 21.6572 19.8247 21.5421C20.2307 21.2997 20.2065 21.633 20.2065 15.6033C20.2065 9.57357 20.2307 9.90687 19.8247 9.66447C19.6368 9.54933 19.4853 9.54327 14.9949 9.54327C10.5408 9.54327 10.3529 9.54933 10.1711 9.65841ZM19.7156 10.125C19.8307 10.2765 19.8429 10.3674 19.8429 11.337V12.3915H14.9949H10.1469V11.3007C10.1469 10.2886 10.1529 10.2038 10.2681 10.0887C10.3893 9.96747 10.468 9.96747 14.9888 9.96747H19.5944L19.7156 10.125ZM19.8307 16.9122C19.8126 20.9421 19.8065 21.0694 19.6974 21.1542C19.5944 21.2269 18.849 21.2391 14.9585 21.2391H10.3347L10.2438 21.1057C10.159 20.9845 10.1469 20.4816 10.1469 16.8637V12.7551H14.9949H19.8429L19.8307 16.9122Z" fill="white"/>
<path d="M10.5953 10.4705C10.5771 10.5189 10.5711 10.7674 10.5832 11.034L10.6014 11.5128L11.7164 11.531C12.486 11.5431 12.8557 11.5249 12.9102 11.4764C12.9951 11.4037 13.0314 10.6826 12.9587 10.4886C12.9284 10.4038 12.7648 10.3917 11.777 10.3917C10.8741 10.3917 10.6196 10.4099 10.5953 10.4705ZM12.5709 10.9674V11.1795H11.7528H10.9347V10.9674V10.7553H11.7528H12.5709V10.9674Z" fill="white"/>
<path d="M15.7705 10.4886C15.4372 10.6644 15.2978 11.2582 15.5099 11.5794C15.6433 11.7794 15.9584 11.9673 16.1644 11.9673C16.6674 11.9673 17.0189 11.5915 16.9765 11.0946C16.9522 10.8401 16.9159 10.7613 16.728 10.5916C16.5462 10.422 16.4674 10.3917 16.225 10.3917C16.0614 10.3977 15.8614 10.4341 15.7705 10.4886ZM16.4371 10.8522C16.6008 10.9613 16.6189 11.2704 16.4674 11.434C16.3402 11.5794 16.0554 11.5734 15.9038 11.4219C15.7463 11.2643 15.7523 11.1128 15.9099 10.9128C16.0493 10.7371 16.2372 10.7128 16.4371 10.8522Z" fill="white"/>
<path d="M17.4189 10.7553C17.4189 10.9189 17.4371 10.9371 17.6007 10.9371C17.7643 10.9371 17.7825 10.9189 17.7825 10.7553C17.7825 10.5917 17.7643 10.5735 17.6007 10.5735C17.4371 10.5735 17.4189 10.5917 17.4189 10.7553Z" fill="white"/>
<path d="M18.2067 10.7553C18.2067 10.925 18.2248 10.9371 18.4188 10.9371C18.6127 10.9371 18.6309 10.925 18.6309 10.7553C18.6309 10.5856 18.6127 10.5735 18.4188 10.5735C18.2248 10.5735 18.2067 10.5856 18.2067 10.7553Z" fill="white"/>
<path d="M18.9945 10.7553C18.9945 10.925 19.0127 10.9371 19.2066 10.9371C19.4005 10.9371 19.4187 10.925 19.4187 10.7553C19.4187 10.5856 19.4005 10.5735 19.2066 10.5735C19.0127 10.5735 18.9945 10.5856 18.9945 10.7553Z" fill="white"/>
<path d="M17.4189 11.5734C17.4189 11.7673 17.431 11.7855 17.6007 11.7855C17.7704 11.7855 17.7825 11.7673 17.7825 11.5734C17.7825 11.3795 17.7704 11.3613 17.6007 11.3613C17.431 11.3613 17.4189 11.3795 17.4189 11.5734Z" fill="white"/>
<path d="M18.2067 11.5734C18.2067 11.7734 18.2188 11.7855 18.4188 11.7855C18.6187 11.7855 18.6309 11.7734 18.6309 11.5734C18.6309 11.3734 18.6187 11.3613 18.4188 11.3613C18.2188 11.3613 18.2067 11.3734 18.2067 11.5734Z" fill="white"/>
<path d="M19.0066 11.5552C19.0248 11.7309 19.049 11.7552 19.2248 11.7733C19.4126 11.7915 19.4187 11.7855 19.4187 11.5794C19.4187 11.3673 19.4126 11.3613 19.2005 11.3613C18.9945 11.3613 18.9884 11.3673 19.0066 11.5552Z" fill="white"/>
<path d="M14.1768 13.2702C13.395 13.4399 12.4921 13.9913 12.0073 14.5973C11.7103 14.973 11.3346 15.7608 11.2437 16.1972C11.1468 16.6517 11.1649 17.4395 11.274 17.9061C11.5588 19.1363 12.5769 20.2513 13.7829 20.6513C14.2798 20.8149 14.9524 20.8815 15.4675 20.8088C17.6855 20.4998 19.1823 18.4091 18.7218 16.2396C18.346 14.4761 16.7401 13.1672 14.9646 13.1853C14.7343 13.1853 14.3767 13.2278 14.1768 13.2702ZM16.1281 13.7974C17.7643 14.3731 18.7339 16.1972 18.2976 17.8697C18.0067 18.9787 17.0856 19.9483 15.9948 20.2877C15.3706 20.4816 14.4555 20.4634 13.8919 20.2574C12.7648 19.8332 12.0133 19.0393 11.6861 17.9364C11.5528 17.4698 11.5407 16.5365 11.674 16.1123C12.0436 14.9246 13.0132 13.9792 14.1646 13.6883C14.6616 13.5611 15.6009 13.6156 16.1281 13.7974Z" fill="white"/>
<path d="M14.601 14.0337C13.6375 14.1367 12.7466 14.767 12.3043 15.6457C11.6074 17.0274 12.0376 18.6514 13.3345 19.5483C13.7405 19.8271 14.4253 20.0271 14.9767 20.0271C15.8312 20.0271 16.5038 19.7483 17.122 19.1241C17.5825 18.6636 17.8007 18.2515 17.9461 17.5849C18.031 17.1789 18.037 17.0395 17.9764 16.6213C17.734 14.9548 16.2917 13.8459 14.601 14.0337ZM15.9039 14.567C16.8553 14.9367 17.4977 15.7972 17.5825 16.8395C17.6189 17.2455 17.6189 17.2516 17.4916 17.1849C17.2916 17.0758 16.8796 17.1061 16.6614 17.2395C16.5523 17.3061 16.3463 17.5122 16.2069 17.7C15.7645 18.2818 15.5161 18.2878 15.0737 17.7182C14.7222 17.2698 14.4859 17.1183 14.1404 17.1183C13.789 17.1183 13.5466 17.2758 13.2375 17.694C12.9345 18.106 12.7163 18.2272 12.5951 18.0636C12.4618 17.8818 12.3709 17.3061 12.4012 16.8153C12.4618 15.7366 13.2496 14.7852 14.3344 14.4822C14.7646 14.361 15.4676 14.3973 15.9039 14.567ZM14.4677 17.6576C14.5283 17.7061 14.6737 17.8818 14.7889 18.0394C14.9949 18.3181 15.3949 18.5727 15.6312 18.5727C15.8797 18.5727 16.2554 18.3181 16.5341 17.9606C16.8432 17.5606 17.0311 17.4516 17.2674 17.5425C17.5037 17.6334 17.5159 17.7606 17.3219 18.1666C16.9705 18.8999 16.2372 19.4514 15.3949 19.6089C14.5949 19.7544 13.6132 19.4089 13.0618 18.7848L12.8678 18.5605L13.0678 18.4333C13.1708 18.3606 13.3829 18.1485 13.5284 17.9667C13.9162 17.4879 14.1768 17.397 14.4677 17.6576Z" fill="white"/>
<path d="M14.9949 14.7912C14.9949 14.973 15.007 14.9851 15.2858 15.0276C15.813 15.1063 16.4675 15.5427 16.722 15.9911C16.7765 16.082 16.8068 16.0881 16.9523 16.0214C17.0432 15.979 17.1159 15.9123 17.1159 15.8699C17.1159 15.8275 16.9583 15.6275 16.7705 15.4215C16.3644 14.9791 15.8796 14.7124 15.3585 14.6458L14.9949 14.5912V14.7912Z" fill="white"/>
<path d="M3.17179 17.3243C1.93555 17.7606 1.23865 18.803 1.31743 20.1119C1.34773 20.73 1.48105 21.1482 1.80223 21.6269C1.97797 21.8875 3.32329 23.3904 3.98383 24.0691L4.17775 24.2691V23.7055C4.17775 23.2207 4.20199 23.0995 4.35349 22.7723L4.52317 22.3965L3.83839 21.6633C3.03241 20.8149 2.85667 20.524 2.82637 20.0028C2.80819 19.6998 2.83243 19.5847 2.94757 19.3605C3.37783 18.5606 4.37167 18.4697 5.11099 19.1484C5.80183 19.7907 7.63195 21.8451 7.76527 22.136C8.01373 22.6571 7.93495 23.2086 7.54105 23.6873C7.34713 23.9176 7.29865 24.0267 7.29865 24.2206C7.29865 24.6993 7.59559 24.9963 8.08645 24.9963C8.29249 24.9963 8.37733 24.9539 8.60761 24.7418C9.13483 24.257 9.41965 23.554 9.41965 22.7662C9.41359 22.1844 9.34087 21.8511 9.11059 21.3906C8.86819 20.924 8.89243 20.9543 7.38349 19.3181C5.97151 17.797 5.65639 17.5364 4.91101 17.3061C4.34137 17.1304 3.69901 17.1365 3.17179 17.3243Z" fill="white"/>
<path d="M25.4181 17.5425C24.9575 17.6273 24.4667 17.8394 24.1031 18.1182C23.9091 18.2636 23.2668 18.8696 22.6729 19.4695L21.5882 20.5543L22.0366 20.524C22.5032 20.4937 23.0486 20.6088 23.3213 20.7846C23.4486 20.8694 23.491 20.833 24.2061 20.1119C25.0727 19.2332 25.3635 19.0575 25.9211 19.0575C26.4968 19.0575 26.9452 19.3726 27.1149 19.8816C27.2118 20.1725 27.1573 20.6755 27.0058 20.9724C26.8301 21.3057 24.1152 23.9964 23.8304 24.1115C23.5698 24.2206 22.9638 24.2388 22.7153 24.1479C22.6244 24.1115 22.4487 24.0024 22.3154 23.8994C21.873 23.5479 21.3336 23.6388 21.0973 24.1054C20.8549 24.5842 21.1761 25.0872 21.976 25.475C22.788 25.8689 23.6849 25.8568 24.5697 25.4386C24.9878 25.2387 25.1393 25.1053 26.5755 23.6691C27.7936 22.445 28.1633 22.039 28.3087 21.7542C28.9026 20.6088 28.8056 19.415 28.0542 18.506C27.43 17.7606 26.3513 17.3667 25.4181 17.5425Z" fill="white"/>
<path d="M21.3397 21.4148C20.6185 21.6148 20.3398 21.833 18.7157 23.451C17.3037 24.8508 17.1765 25.0023 16.9704 25.4265C16.6917 26.0204 16.5826 26.6446 16.6795 27.2082C16.9038 28.5838 18.0309 29.5413 19.4126 29.5413C20.5034 29.5413 20.97 29.2625 22.5699 27.6809C23.6364 26.6264 23.7819 26.4628 23.6001 26.5113C23.1819 26.6264 22.5577 26.5416 22.079 26.3052L21.879 26.2083L21.0852 26.99C20.2125 27.8566 19.9519 28.0202 19.4308 28.0263C18.6733 28.0263 18.0552 27.3354 18.1703 26.6082C18.2491 26.1356 18.4975 25.8204 19.9277 24.4024C21.1397 23.2025 21.37 23.0025 21.6245 22.9116C22.176 22.7298 22.582 22.8026 23.0425 23.1783C23.3455 23.4207 23.6243 23.4631 23.897 23.3116C24.2727 23.1056 24.4242 22.6329 24.2364 22.2693C24.1212 22.0451 23.5576 21.639 23.1213 21.4754C22.6365 21.2936 21.873 21.2633 21.3397 21.4148Z" fill="white"/>
<path d="M6.10485 21.6451C5.94123 21.6754 5.40795 22.239 5.25039 22.548C4.77771 23.4752 4.84437 24.6872 5.42613 25.5599C5.62005 25.8568 8.05011 28.5111 8.35917 28.7656C8.62581 28.9838 9.04395 29.208 9.41967 29.3352C9.91053 29.4989 10.7953 29.4867 11.2498 29.3049C11.7467 29.111 12.1345 28.8262 12.4678 28.4202C12.9223 27.8505 13.0254 27.5294 13.0254 26.6567V25.9235L12.7648 25.4023C12.5406 24.9539 12.3527 24.7054 11.4376 23.7116C10.8559 23.0692 10.3287 22.4935 10.2741 22.439C10.1832 22.342 10.1772 22.3784 10.1772 22.9238C10.1711 23.4328 10.1529 23.5601 10.0075 23.8691L9.83781 24.2327L10.0135 24.4145C10.1044 24.5175 10.4256 24.863 10.7226 25.1781C11.3407 25.8447 11.5407 26.2143 11.5407 26.681C11.5407 27.693 10.468 28.2747 9.57117 27.7475C9.40149 27.6506 8.78943 27.0324 7.97133 26.1477C6.55935 24.6084 6.45027 24.4448 6.45027 23.8631C6.45027 23.5298 6.55329 23.2813 6.83811 22.948C7.01991 22.7238 7.05627 22.6389 7.05627 22.3905C7.05627 22.0511 6.89871 21.8148 6.59571 21.6875C6.38967 21.6027 6.34725 21.5966 6.10485 21.6451Z" fill="white"/>
</g>
<path d="M41.242 25L33.08 25.198L32.046 10.7L37.282 10.37L35.698 23.416L41.33 22.734L41.242 25ZM44.0774 25.506C43.8281 25.506 43.6448 25.4987 43.5274 25.484C43.0288 25.1467 42.6254 24.648 42.3174 23.988C42.0241 23.3133 41.8774 22.6167 41.8774 21.898C41.8774 20.9593 42.2294 20.2773 42.9334 19.852C43.6521 19.4267 44.9648 19.214 46.8714 19.214C47.5754 19.214 48.3088 19.2653 49.0714 19.368L49.0274 18.884C48.9688 18.2973 48.6901 17.8353 48.1914 17.498C47.6928 17.146 47.0548 16.97 46.2774 16.97C45.5001 16.97 44.7228 17.212 43.9454 17.696L42.9774 14.506C44.2388 13.9927 45.6761 13.736 47.2894 13.736C48.9028 13.736 50.1788 14.1027 51.1174 14.836C52.0561 15.5547 52.5254 16.684 52.5254 18.224C52.5254 18.576 52.5108 18.8547 52.4814 19.06L51.8654 25.132L49.6874 25.33L49.3574 22.14H49.1814C48.6828 23.196 47.9934 24.0247 47.1134 24.626C46.2334 25.2127 45.2214 25.506 44.0774 25.506ZM49.1594 20.292L47.9934 20.27C47.0254 20.27 46.2334 20.3213 45.6174 20.424C45.4121 20.8347 45.3094 21.2013 45.3094 21.524C45.3094 21.8467 45.3534 22.1547 45.4414 22.448C45.5294 22.7413 45.6248 22.9393 45.7274 23.042C47.4874 22.7633 48.6314 21.8467 49.1594 20.292ZM61.6351 22.426C62.1778 21.722 62.5518 20.9593 62.7571 20.138C62.9625 19.3167 63.0651 18.6053 63.0651 18.004C63.0651 17.388 62.9771 16.2 62.8011 14.44L67.5091 13.714L66.1011 25.132L63.9231 25.33L63.4831 21.15H63.3291C62.2438 24.054 60.5131 25.506 58.1371 25.506C57.7851 25.506 57.4918 25.4473 57.2571 25.33C56.5091 24.4207 55.9958 22.8807 55.7171 20.71C55.4385 18.5247 55.2991 16.3467 55.2991 14.176L59.6991 13.846C59.4351 16.4127 59.3031 18.334 59.3031 19.61C59.3031 20.886 59.4131 22.2573 59.6331 23.724C60.4398 23.548 61.1071 23.1153 61.6351 22.426ZM79.2446 13.494C79.5233 13.494 79.7946 13.538 80.0586 13.626C80.8066 14.5353 81.3199 16.112 81.5986 18.356C81.8773 20.5853 82.0166 22.8 82.0166 25L78.0566 25.33C78.0566 21.9567 77.9319 18.884 77.6826 16.112C75.7319 16.8307 74.4339 19.8373 73.7886 25.132L71.6106 25.33L70.4886 14.418L75.1966 13.692L74.7126 17.564H74.9106C75.4973 16.288 76.1646 15.2907 76.9126 14.572C77.6606 13.8533 78.4379 13.494 79.2446 13.494ZM88.092 25.506C87.74 25.506 87.4467 25.4473 87.212 25.33C86.6694 24.7727 86.2294 23.944 85.892 22.844C85.5694 21.744 85.408 20.5193 85.408 19.17C85.408 17.4247 85.7454 16.1413 86.42 15.32C87.1094 14.4987 88.2974 14.088 89.984 14.088C91.0254 14.088 92.0594 14.2933 93.086 14.704L92.756 9.974L97.464 9.248L96.056 25.132L93.878 25.33L93.592 21.546H93.416C92.2867 24.186 90.512 25.506 88.092 25.506ZM90.842 15.408C90.2994 15.408 89.8374 15.5107 89.456 15.716C89.2507 16.772 89.148 17.8647 89.148 18.994C89.148 21.3407 89.2947 22.9173 89.588 23.724C90.3067 23.6067 91.062 23.1007 91.854 22.206C92.2647 21.7367 92.602 21.0693 92.866 20.204C93.1447 19.3387 93.284 18.3487 93.284 17.234C93.284 17.014 93.2694 16.6693 93.24 16.2C92.58 15.672 91.7807 15.408 90.842 15.408ZM107.434 17.762C106.436 17.762 105.681 18.114 105.168 18.818C104.654 19.5073 104.28 20.7833 104.046 22.646L103.738 25.132L101.56 25.33L100.438 14.418L105.146 13.692L104.706 17.212H104.86C106.033 14.6893 107.529 13.3473 109.348 13.186L108.732 17.872C108.189 17.7987 107.756 17.762 107.434 17.762ZM116.36 26.276C115.846 27.552 115.311 28.432 114.754 28.916C114.211 29.4147 113.485 29.664 112.576 29.664C111.681 29.664 110.823 29.334 110.002 28.674L110.662 27.552C111.146 27.728 111.674 27.816 112.246 27.816C112.832 27.816 113.36 27.6253 113.83 27.244C114.299 26.8627 114.6 26.2833 114.732 25.506L110.178 14.44L114.886 13.714L116.338 22.162H116.514L119.352 13.78L121.134 14.264L116.36 26.276ZM139.64 25L131.478 25.198L130.444 10.7L135.68 10.37L134.096 23.416L139.728 22.734L139.64 25ZM142.168 25.33L141.046 14.44L145.754 13.714L144.346 25.132L142.168 25.33ZM141.728 11.998C141.332 11.5873 141.134 11.1033 141.134 10.546C141.134 9.98867 141.332 9.512 141.728 9.116C142.139 8.70533 142.623 8.5 143.18 8.5C143.737 8.5 144.214 8.70533 144.61 9.116C145.021 9.512 145.226 9.98867 145.226 10.546C145.226 11.1033 145.021 11.5873 144.61 11.998C144.214 12.394 143.737 12.592 143.18 12.592C142.623 12.592 142.139 12.394 141.728 11.998ZM157.469 13.494C157.748 13.494 158.019 13.538 158.283 13.626C159.031 14.5353 159.545 16.112 159.823 18.356C160.102 20.5853 160.241 22.8 160.241 25L156.281 25.33C156.281 21.9567 156.157 18.884 155.907 16.112C153.957 16.8307 152.659 19.8373 152.013 25.132L149.835 25.33L148.713 14.418L153.421 13.692L152.937 17.564H153.135C153.722 16.288 154.389 15.2907 155.137 14.572C155.885 13.8533 156.663 13.494 157.469 13.494ZM173.379 14.352L169.969 17.916L174.743 25.044L170.563 25.33L167.813 20.182L167.021 20.93L166.647 25.132L164.469 25.33L163.347 9.974L168.055 9.248L167.219 18.752L171.905 13.208L173.379 14.352Z" fill="black"/>
<defs>
<clipPath id="clip0_2_108">
<rect y="1" width="30" height="30" rx="4.6875" fill="white"/>
</clipPath>
</defs>
</svg>
