<svg width="32" height="32" viewBox="0 0 32 32" fill="none" xmlns="http://www.w3.org/2000/svg">
<g clip-path="url(#clip0_2_338)">
<rect width="32" height="32" rx="5" fill="#3C50E0"/>
<path d="M10.145 1.31319C10.0106 1.34519 9.70978 1.46039 9.47298 1.57559C9.11458 1.74839 8.85218 1.97239 7.67458 3.13719C6.31778 4.48119 6.30498 4.50039 6.58018 4.43639C6.93858 4.35959 7.65538 4.44919 8.01378 4.62839L8.27618 4.75639L9.08258 3.96919C9.97858 3.09239 10.273 2.90039 10.8426 2.86199C11.3226 2.82359 11.6874 2.99639 11.9882 3.41239C12.1674 3.66199 12.1866 3.72599 12.1866 4.18039C12.1802 4.52599 12.1482 4.73079 12.065 4.89079C11.8986 5.21079 9.10818 7.98839 8.79458 8.14199C8.19298 8.44279 7.66818 8.40439 7.15618 8.02679C6.72738 7.70039 6.33058 7.67479 6.01698 7.93719C5.62018 8.26999 5.63938 8.80759 6.06818 9.19799C6.99618 10.0364 8.22498 10.1772 9.46658 9.58839C9.90178 9.38359 10.081 9.22999 11.5018 7.81559C12.3914 6.93879 13.1722 6.10039 13.3194 5.88279C13.7034 5.30039 13.8442 4.75639 13.8058 4.00119C13.7802 3.48919 13.7418 3.31639 13.5754 2.95799C13.2362 2.20919 12.5514 1.60759 11.7642 1.36439C11.3482 1.23639 10.5866 1.21079 10.145 1.31319Z" fill="white"/>
<path d="M19.6298 1.52438C19.0794 1.71638 18.6698 2.01718 18.2922 2.48438C17.9018 2.95798 17.7162 3.44438 17.6778 4.09078C17.5946 5.30678 17.8506 5.79318 19.4506 7.53398C20.129 8.26358 20.6794 8.85878 20.6858 8.85878C20.6922 8.85878 20.6922 8.66038 20.6794 8.42358C20.6602 8.01398 20.769 7.54038 21.0122 6.99638C21.0442 6.91958 20.8394 6.65718 20.2634 6.02358C19.4186 5.10198 19.2586 4.82038 19.2586 4.28918C19.265 3.75798 19.6746 3.20118 20.193 3.03478C20.5002 2.93238 20.9866 2.98998 21.3258 3.17558C21.7354 3.39958 24.3338 6.22838 24.5066 6.63798C24.705 7.09878 24.6666 7.65558 24.4106 8.02678C24.0266 8.57078 23.9946 8.64118 23.9946 8.84598C23.9946 9.28758 24.3082 9.62038 24.7434 9.63958C25.2298 9.65878 25.601 9.31958 26.0042 8.47478C26.1962 8.07798 26.2026 8.02678 26.2026 7.25238V6.44598L25.9338 5.90198C25.697 5.43478 25.4986 5.17878 24.5258 4.11638C22.7786 2.20918 22.5482 1.99798 22.0042 1.73558C21.153 1.33238 20.3722 1.26198 19.6298 1.52438Z" fill="white"/>
<path d="M6.3626 5.27478C5.4218 5.46678 5.0954 5.70358 3.265 7.54678C1.8058 9.01238 1.6586 9.18518 1.4474 9.63318C0.724201 11.1436 1.2554 12.8716 2.6634 13.614C3.5466 14.0748 4.4938 14.0812 5.4282 13.6204C5.8634 13.4092 6.0618 13.2364 7.2458 12.0652L8.577 10.7468H7.9498C7.4314 10.7404 7.265 10.7148 6.9834 10.5932L6.6442 10.4396L5.825 11.246C4.9034 12.1612 4.6282 12.3276 4.0266 12.3276C3.6106 12.3276 3.3802 12.2252 3.0922 11.918C2.7978 11.6108 2.7338 11.4444 2.7274 11.0348C2.721 10.4076 2.8682 10.1964 4.4042 8.64758C5.1658 7.87958 5.9146 7.17558 6.0746 7.07958C6.3242 6.93238 6.433 6.90678 6.881 6.90678C7.3802 6.90678 7.4058 6.91318 7.8026 7.17558C8.2698 7.49558 8.5066 7.52118 8.833 7.30358C9.345 6.95798 9.345 6.38838 8.8266 5.93398C8.2186 5.39638 7.1626 5.11478 6.3626 5.27478Z" fill="white"/>
<path d="M22.305 6.43959C21.5434 7.23319 21.3002 8.42999 21.6842 9.52439C21.8954 10.1196 22.113 10.4076 23.6042 12.0332C25.505 14.094 25.857 14.318 27.1626 14.3244C27.7962 14.3308 27.9114 14.3116 28.2954 14.1516C29.4986 13.6396 30.2538 12.3148 30.0746 11.0348C29.9274 9.97879 29.7866 9.78039 27.4762 7.30999C27.0218 6.81719 27.0154 6.81719 27.073 7.05399C27.1434 7.37399 27.0346 8.03959 26.8362 8.46839L26.6826 8.81399L27.1754 9.35159C28.3722 10.6636 28.4682 10.8172 28.4746 11.4252C28.4746 11.886 28.2762 12.2764 27.905 12.5388C27.6618 12.7116 27.585 12.7308 27.1754 12.7244C26.7978 12.7244 26.6634 12.6924 26.4202 12.5516C26.0554 12.3404 23.521 9.62039 23.297 9.20439C23.1114 8.85879 23.0538 8.38519 23.1626 8.06519C23.201 7.93719 23.3418 7.69399 23.4634 7.53399C23.5914 7.36759 23.713 7.16279 23.7386 7.07319C23.809 6.81079 23.7002 6.47159 23.4826 6.27959C23.3226 6.13879 23.2266 6.10679 22.9578 6.10679C22.6442 6.10679 22.6122 6.11959 22.305 6.43959Z" fill="white"/>
<path d="M10.9002 9.30038C10.4586 9.56918 10.4906 9.10198 10.4906 15.5852C10.4906 21.4348 10.4906 21.4476 10.625 21.6204C10.9194 21.9916 10.689 21.9788 16.0074 21.9788C20.737 21.9788 20.897 21.9724 21.0954 21.8508C21.5242 21.5948 21.4986 21.9468 21.4986 15.5788C21.4986 9.21078 21.5242 9.56278 21.0954 9.30678C20.897 9.18518 20.737 9.17878 15.9946 9.17878C11.2906 9.17878 11.0922 9.18518 10.9002 9.30038ZM20.9802 9.79318C21.1018 9.95318 21.1146 10.0492 21.1146 11.0732V12.1868H15.9946H10.8746V11.0348C10.8746 9.96598 10.881 9.87638 11.0026 9.75478C11.1306 9.62678 11.2138 9.62678 15.9882 9.62678H20.8522L20.9802 9.79318ZM21.1018 16.9612C21.0826 21.2172 21.0762 21.3516 20.961 21.4412C20.8522 21.518 20.065 21.5308 15.9562 21.5308H11.073L10.977 21.39C10.8874 21.262 10.8746 20.7308 10.8746 16.91V12.5708H15.9946H21.1146L21.1018 16.9612Z" fill="white"/>
<path d="M11.3482 10.158C11.329 10.2092 11.3226 10.4716 11.3354 10.7532L11.3546 11.2588L12.5322 11.278C13.345 11.2908 13.7354 11.2716 13.793 11.2204C13.8826 11.1436 13.921 10.382 13.8442 10.1772C13.8122 10.0876 13.6394 10.0748 12.5962 10.0748C11.6426 10.0748 11.3738 10.094 11.3482 10.158ZM13.4346 10.6828V10.9068H12.5706H11.7066V10.6828V10.4588H12.5706H13.4346V10.6828Z" fill="white"/>
<path d="M16.8138 10.1772C16.4618 10.3628 16.3146 10.99 16.5386 11.3292C16.6794 11.5404 17.0122 11.7388 17.2298 11.7388C17.761 11.7388 18.1322 11.342 18.0874 10.8172C18.0618 10.5484 18.0234 10.4652 17.825 10.286C17.633 10.1068 17.5498 10.0748 17.2938 10.0748C17.121 10.0812 16.9098 10.1196 16.8138 10.1772ZM17.5178 10.5612C17.6906 10.6764 17.7098 11.0028 17.5498 11.1756C17.4154 11.3292 17.1146 11.3228 16.9546 11.1628C16.7882 10.9964 16.7946 10.8364 16.961 10.6252C17.1082 10.4396 17.3066 10.414 17.5178 10.5612Z" fill="white"/>
<path d="M18.5546 10.4588C18.5546 10.6316 18.5738 10.6508 18.7466 10.6508C18.9194 10.6508 18.9386 10.6316 18.9386 10.4588C18.9386 10.286 18.9194 10.2668 18.7466 10.2668C18.5738 10.2668 18.5546 10.286 18.5546 10.4588Z" fill="white"/>
<path d="M19.3866 10.4588C19.3866 10.638 19.4058 10.6508 19.6106 10.6508C19.8154 10.6508 19.8346 10.638 19.8346 10.4588C19.8346 10.2796 19.8154 10.2668 19.6106 10.2668C19.4058 10.2668 19.3866 10.2796 19.3866 10.4588Z" fill="white"/>
<path d="M20.2186 10.4588C20.2186 10.638 20.2378 10.6508 20.4426 10.6508C20.6474 10.6508 20.6666 10.638 20.6666 10.4588C20.6666 10.2796 20.6474 10.2668 20.4426 10.2668C20.2378 10.2668 20.2186 10.2796 20.2186 10.4588Z" fill="white"/>
<path d="M18.5546 11.3228C18.5546 11.5276 18.5674 11.5468 18.7466 11.5468C18.9258 11.5468 18.9386 11.5276 18.9386 11.3228C18.9386 11.118 18.9258 11.0988 18.7466 11.0988C18.5674 11.0988 18.5546 11.118 18.5546 11.3228Z" fill="white"/>
<path d="M19.3866 11.3228C19.3866 11.534 19.3994 11.5468 19.6106 11.5468C19.8218 11.5468 19.8346 11.534 19.8346 11.3228C19.8346 11.1116 19.8218 11.0988 19.6106 11.0988C19.3994 11.0988 19.3866 11.1116 19.3866 11.3228Z" fill="white"/>
<path d="M20.2314 11.3036C20.2506 11.4892 20.2762 11.5148 20.4618 11.534C20.6602 11.5532 20.6666 11.5468 20.6666 11.3292C20.6666 11.1052 20.6602 11.0988 20.4362 11.0988C20.2186 11.0988 20.2122 11.1052 20.2314 11.3036Z" fill="white"/>
<path d="M15.1306 13.1148C14.305 13.294 13.3514 13.8764 12.8394 14.5164C12.5258 14.9132 12.129 15.7452 12.033 16.206C11.9306 16.686 11.9498 17.518 12.065 18.0108C12.3658 19.31 13.441 20.4876 14.7146 20.91C15.2394 21.0828 15.9498 21.1532 16.4938 21.0764C18.8362 20.75 20.417 18.542 19.9306 16.2508C19.5338 14.3884 17.8378 13.006 15.9626 13.0252C15.7194 13.0252 15.3418 13.07 15.1306 13.1148ZM17.1914 13.6716C18.9194 14.2796 19.9434 16.206 19.4826 17.9724C19.1754 19.1436 18.2026 20.1676 17.0506 20.526C16.3914 20.7308 15.425 20.7116 14.8298 20.494C13.6394 20.046 12.8458 19.2076 12.5002 18.0428C12.3594 17.55 12.3466 16.5644 12.4874 16.1164C12.8778 14.862 13.9018 13.8636 15.1178 13.5564C15.6426 13.422 16.6346 13.4796 17.1914 13.6716Z" fill="white"/>
<path d="M15.5786 13.9212C14.561 14.03 13.6202 14.6956 13.153 15.6236C12.417 17.0828 12.8714 18.798 14.241 19.7452C14.6698 20.0396 15.393 20.2508 15.9754 20.2508C16.8778 20.2508 17.5882 19.9564 18.241 19.2972C18.7274 18.8108 18.9578 18.3756 19.1114 17.6716C19.201 17.2428 19.2074 17.0956 19.1434 16.654C18.8874 14.894 17.3642 13.7228 15.5786 13.9212ZM16.9546 14.4844C17.9594 14.8748 18.6378 15.7836 18.7274 16.8844C18.7658 17.3132 18.7658 17.3196 18.6314 17.2492C18.4202 17.134 17.985 17.166 17.7546 17.3068C17.6394 17.3772 17.4218 17.5948 17.2746 17.7932C16.8074 18.4076 16.545 18.414 16.0778 17.8124C15.7066 17.3388 15.457 17.1788 15.0922 17.1788C14.721 17.1788 14.465 17.3452 14.1386 17.7868C13.8186 18.222 13.5882 18.35 13.4602 18.1772C13.3194 17.9852 13.2234 17.3772 13.2554 16.8588C13.3194 15.7196 14.1514 14.7148 15.297 14.3948C15.7514 14.2668 16.4938 14.3052 16.9546 14.4844ZM15.4378 17.7484C15.5018 17.7996 15.6554 17.9852 15.777 18.1516C15.9946 18.446 16.417 18.7148 16.6666 18.7148C16.929 18.7148 17.3258 18.446 17.6202 18.0684C17.9466 17.646 18.145 17.5308 18.3946 17.6268C18.6442 17.7228 18.657 17.8572 18.4522 18.286C18.081 19.0604 17.3066 19.6428 16.417 19.8092C15.5722 19.9628 14.5354 19.598 13.953 18.9388L13.7482 18.702L13.9594 18.5676C14.0682 18.4908 14.2922 18.2668 14.4458 18.0748C14.8554 17.5692 15.1306 17.4732 15.4378 17.7484Z" fill="white"/>
<path d="M15.9946 14.7212C15.9946 14.9132 16.0074 14.926 16.3018 14.9708C16.8586 15.054 17.5498 15.5148 17.8186 15.9884C17.8762 16.0844 17.9082 16.0908 18.0618 16.0204C18.1578 15.9756 18.2346 15.9052 18.2346 15.8604C18.2346 15.8156 18.0682 15.6044 17.8698 15.3868C17.441 14.9196 16.929 14.638 16.3786 14.5676L15.9946 14.51V14.7212Z" fill="white"/>
<path d="M3.50823 17.3964C2.20263 17.8572 1.46663 18.958 1.54983 20.3404C1.58183 20.9932 1.72263 21.4348 2.06183 21.9404C2.24743 22.2156 3.66823 23.8028 4.36583 24.5196L4.57063 24.7308V24.1356C4.57063 23.6236 4.59623 23.4956 4.75623 23.15L4.93543 22.7532L4.21223 21.9788C3.36103 21.0828 3.17543 20.7756 3.14343 20.2252C3.12423 19.9052 3.14983 19.7836 3.27143 19.5468C3.72583 18.702 4.77543 18.606 5.55623 19.3228C6.28583 20.0012 8.21863 22.1708 8.35943 22.478C8.62183 23.0284 8.53863 23.6108 8.12263 24.1164C7.91783 24.3596 7.86663 24.4748 7.86663 24.6796C7.86663 25.1852 8.18023 25.4988 8.69863 25.4988C8.91623 25.4988 9.00583 25.454 9.24903 25.23C9.80583 24.718 10.1066 23.9756 10.1066 23.1436C10.1002 22.5292 10.0234 22.1772 9.78023 21.6908C9.52423 21.198 9.54983 21.23 7.95623 19.502C6.46503 17.8956 6.13223 17.6204 5.34503 17.3772C4.74343 17.1916 4.06503 17.198 3.50823 17.3964Z" fill="white"/>
<path d="M27.0026 17.6268C26.5162 17.7164 25.9978 17.9404 25.6138 18.2348C25.409 18.3884 24.7306 19.0284 24.1034 19.662L22.9578 20.8076L23.4314 20.7756C23.9242 20.7436 24.5002 20.8652 24.7882 21.0508C24.9226 21.1404 24.9674 21.102 25.7226 20.3404C26.6378 19.4124 26.945 19.2268 27.5338 19.2268C28.1418 19.2268 28.6154 19.5596 28.7946 20.0972C28.897 20.4044 28.8394 20.9356 28.6794 21.2492C28.4938 21.6012 25.6266 24.4428 25.3258 24.5644C25.0506 24.6796 24.4106 24.6988 24.1482 24.6028C24.0522 24.5644 23.8666 24.4492 23.7258 24.3404C23.2586 23.9692 22.689 24.0652 22.4394 24.558C22.1834 25.0636 22.5226 25.5948 23.3674 26.0044C24.225 26.4204 25.1722 26.4076 26.1066 25.966C26.5482 25.7548 26.7082 25.614 28.225 24.0972C29.5114 22.8044 29.9018 22.3756 30.0554 22.0748C30.6826 20.8652 30.5802 19.6044 29.7866 18.6444C29.1274 17.8572 27.9882 17.4412 27.0026 17.6268Z" fill="white"/>
<path d="M22.6954 21.7164C21.9338 21.9276 21.6394 22.158 19.9242 23.8668C18.433 25.3452 18.2986 25.5052 18.081 25.9532C17.7866 26.5804 17.6714 27.2396 17.7738 27.8348C18.0106 29.2876 19.201 30.2988 20.6602 30.2988C21.8122 30.2988 22.305 30.0044 23.9946 28.334C25.121 27.2204 25.2746 27.0476 25.0826 27.0988C24.641 27.2204 23.9818 27.1308 23.4762 26.8812L23.265 26.7788L22.4266 27.6044C21.505 28.5196 21.2298 28.6924 20.6794 28.6988C19.8794 28.6988 19.2266 27.9692 19.3482 27.2012C19.4314 26.702 19.6938 26.3692 21.2042 24.8716C22.4842 23.6044 22.7274 23.3932 22.9962 23.2972C23.5786 23.1052 24.0074 23.182 24.4938 23.5788C24.8138 23.8348 25.1082 23.8796 25.3962 23.7196C25.793 23.502 25.953 23.0028 25.7546 22.6188C25.633 22.382 25.0378 21.9532 24.577 21.7804C24.065 21.5884 23.2586 21.5564 22.6954 21.7164Z" fill="white"/>
<path d="M6.60582 21.9596C6.43302 21.9916 5.86982 22.5868 5.70342 22.9132C5.20422 23.8924 5.27462 25.1724 5.88902 26.094C6.09382 26.4076 8.66022 29.2108 8.98662 29.4796C9.26822 29.71 9.70982 29.9468 10.1066 30.0812C10.625 30.254 11.5594 30.2412 12.0394 30.0492C12.5642 29.8444 12.9738 29.5436 13.3258 29.1148C13.8058 28.5132 13.9146 28.174 13.9146 27.2524V26.478L13.6394 25.9276C13.4026 25.454 13.2042 25.1916 12.2378 24.142C11.6234 23.4636 11.0666 22.8556 11.009 22.798C10.913 22.6956 10.9066 22.734 10.9066 23.31C10.9002 23.8476 10.881 23.982 10.7274 24.3084L10.5482 24.6924L10.7338 24.8844C10.8298 24.9932 11.169 25.358 11.4826 25.6908C12.1354 26.3948 12.3466 26.7852 12.3466 27.278C12.3466 28.3468 11.2138 28.9612 10.2666 28.4044C10.0874 28.302 9.44102 27.6492 8.57702 26.7148C7.08582 25.0892 6.97062 24.9164 6.97062 24.302C6.97062 23.95 7.07942 23.6876 7.38022 23.3356C7.57222 23.0988 7.61062 23.0092 7.61062 22.7468C7.61062 22.3884 7.44422 22.1388 7.12422 22.0044C6.90662 21.9148 6.86182 21.9084 6.60582 21.9596Z" fill="white"/>
</g>
<defs>
<clipPath id="clip0_2_338">
<rect width="32" height="32" rx="5" fill="white"/>
</clipPath>
</defs>
</svg>
